# xmcd CD database file
#
# Track frame offsets:
#	150
#	16900
#	34895
#	57250
#	78062
#	96755
#	113775
#	134182
#	148912
#	165630
#	189487
#
# Disc length: 2709 seconds
#
# Revision: 0
# Processed by: cddbd v1.5PL3 Copyright (c) Steve Scherf et al.
# Submitted via: CDex 1.51
#
DISCID=940a930b
DTITLE=庄野真代 - マスカレード
DYEAR=1900
DGENRE=Pop
TTITLE0=マスカレード
TTITLE1=Week-end Love
TTITLE2=原宿ミッドナイト・サブウェイ
TTITLE3=夜明けのヒーロー
TTITLE4=魔女&Monster
TTITLE5=想い出のラブ・ソングス
TTITLE6=One Step Lady
TTITLE7=Stop Motion
TTITLE8=モンテカルロで乾杯
TTITLE9=Invitation
TTITLE10=エピローグ
EXTD=
EXTT0=
EXTT1=
EXTT2=
EXTT3=
EXTT4=
EXTT5=
EXTT6=
EXTT7=
EXTT8=
EXTT9=
EXTT10=
PLAYORDER=
